[Header]
FileType HTR
DataType HTRS
FileVersion 1
NumSegments 28
NumFrames 4
DataFrameRate 24
EulerRotationOrder ZYX
CalibrationUnits mm
RotationUnits Degrees
GlobalAxisofGravity Y
BoneLengthAxis Y
ScaleFactor 1.0
[SegmentNames&Hierarchy]
waist	GLOBAL
chest	waist
head	chest
joint2	chest
right_shoulder1	joint2
right_elbow1	right_shoulder1
right_wrist1	right_elbow1
right_hand1	right_wrist1
right_finger3	right_hand1
right_finger4	right_hand1
right_finger5	right_hand1
joint3	chest
right_shoulder2	joint3
right_elbow2	right_shoulder2
right_wrist2	right_elbow2
right_hand2	right_wrist2
right_finger6	right_hand2
right_finger7	right_hand2
right_finger8	right_hand2
Center_pelvis	waist
left_pelvs	Center_pelvis
left_leg	left_pelvs
left_knee	left_leg
left_foot	left_knee
right_pelvis	Center_pelvis
right_leg	right_pelvis
right_knee	right_leg
right_foot	right_knee
[BasePosition]
waist	0	0	0	179.9999991	0	91.33221985	1
chest	0	0	0	-2.307808268e-010	-1.984983424e-008	1.332219854	1
head	0	0	0	180	-1.481061187e-024	90	1
joint2	0	0	0	4.615476202e-010	-1.707085745e-006	90	1
right_shoulder1	0	0	0	1.916575325e-008	-1.983803253e-008	-88.02506599	1
right_elbow1	0	0	0	-180	-1.948815659e-008	-12.92899665	1
right_wrist1	0	0	0	3.256551172e-010	1.942478841e-008	1.920938916	1
right_hand1	0	0	0	136.2194085	85.17676588	-133.4832578	1
right_finger3	0	0	0	154.4596717	79.84057755	147.6247455	1
right_finger4	0	0	0	154.4596717	79.84057755	147.6247455	1
right_finger5	0	0	0	154.4596717	79.84057755	147.6247455	1
joint3	0	0	0	-180	-1.89575832e-022	90	1
right_shoulder2	0	0	0	6.774897105e-015	-7.012540931e-015	-88.02506599	1
right_elbow2	0	0	0	-180	-6.888863384e-015	-12.92899665	1
right_wrist2	0	0	0	-1.240805042e-012	-7.401196581e-011	1.920938916	1
right_hand2	0	0	0	136.2194085	85.17676588	-133.4832578	1
right_finger6	0	0	0	154.4596717	79.84057755	147.6247455	1
right_finger7	0	0	0	154.4596717	79.84057755	147.6247455	1
right_finger8	0	0	0	154.4596717	79.84057755	147.6247455	1
Center_pelvis	0	0	0	-180	-8.537716493e-007	89.87586122	1
left_pelvs	0	0	0	0	0	-1.456358634	1
left_leg	0	0	0	179.9999991	0	88.69804733	1
left_knee	0	0	0	-180	-7.863991589e-009	-2.076172838	1
left_foot	0	0	0	179.9999985	-3.055580289e-010	-90.77422016	1
right_pelvis	0	0	0	0	0	-2.39554958	1
right_leg	0	0	0	0	0	-87.75885638	1
right_knee	0	0	0	179.9999991	3.702652968e-022	-2.076172838	1
right_foot	0	0	0	180	-7.405305937e-025	-90.77422016	1
[waist]
13	0	-3.152148962	0	1.809133053	8.235367775	2.033742189	1.0
14	0	-3.152148962	0	1.811894774	4.103852749	1.903819323	1.0
15	0	-3.152148962	0	1.814727664	-0.134308815	1.770542979	1.0
16	0	-3.152148962	0	1.817513943	-4.302722931	1.639459729	1.0
[chest]
13	26.00589561	-0.2472970486	-4.335428715	52.53359985	16.24051476	4.314247131	1.0
14	26.00589561	-0.2472970486	-4.335428715	48.88231277	16.03623962	4.020678997	1.0
15	26.00589561	-0.2472970486	-4.335428715	44.78551483	15.8084116	3.693263769	1.0
16	26.00589561	-0.2472970486	-4.335428715	40.43026733	15.56772995	3.347377539	1.0
[head]
13	20.62318993	0.1433748305	1.492195129	-11.71043205	-32.78639984	4.671677113	1.0
14	20.62318993	0.1433748305	1.492195129	-10.87342548	-30.44298172	4.337767601	1.0
15	20.62318993	0.1433748305	1.492195129	-9.939450264	-27.82807732	3.96517396	1.0
16	20.62318993	0.1433748305	1.492195129	-8.954634666	-25.0708313	3.572299004	1.0
[joint2]
13	-1.657010078	17.01290512	0.01287616603	-20.42731285	-8.448703766	6.610005856	1.0
14	-1.657010078	17.01290512	0.01287616603	-22.94873428	-7.844830036	6.137553692	1.0
15	-1.657010078	17.01290512	0.01287616603	-25.76226807	-7.170996189	5.610367775	1.0
16	-1.657010078	17.01290512	0.01287616603	-28.7289505	-6.460484028	5.054484367	1.0
[right_shoulder1]
13	16.8572731	1.181756139	-3.180256128	0	24.07359695	0	1.0
14	16.71851158	1.141683102	-2.885203123	0	20.44036484	0	1.0
15	16.56367683	1.096967459	-2.555968285	0	16.38621712	0	1.0
16	16.40041161	1.04981792	-2.208811998	0	12.11138725	0	1.0
[right_elbow1]
13	-13.64346027	1.083028078	-0.5017899871	0	42.11854172	0	1.0
14	-13.64346027	1.083028078	-0.5017899871	0	39.58675003	0	1.0
15	-13.64346027	1.083028078	-0.5017899871	0	36.76164246	0	1.0
16	-13.64346027	1.083028078	-0.5017899871	0	33.78275681	0	1.0
[right_wrist1]
13	-11.07325459	0.004849368241	0.6145500541	0	26.89829445	0	1.0
14	-11.07325459	0.004849368241	0.6145500541	0	24.9757309	0	1.0
15	-11.07325459	0.004849368241	0.6145500541	0	22.8304348	0	1.0
16	-11.07325459	0.004849368241	0.6145500541	0	20.56836319	0	1.0
[right_hand1]
13	-7.870647907	-0.6475095749	0.1588415354	-1.506642222	-8.584459305	30.15344048	1.0
14	-7.870647907	-0.6475095749	0.1588415354	-1.297903895	-8.587166786	28.77209473	1.0
15	-7.870647907	-0.6475095749	0.1588415354	-1.064983249	-8.590188026	27.23071861	1.0
16	-7.870647907	-0.6475095749	0.1588415354	-0.8193838596	-8.593374252	25.60544205	1.0
[right_finger3]
13	10.07661057	3.347557783	-1.489186764	-77.95326233	59.85940552	96.9688797	1.0
14	10.07661057	3.347557783	-1.489186764	-78.41028595	54.8370285	96.14457703	1.0
15	10.07661057	3.347557783	-1.489186764	-78.92025757	49.23281097	95.22478485	1.0
16	10.07661057	3.347557783	-1.489186764	-79.45799255	43.3235321	94.25492859	1.0
[right_finger4]
13	-1.201135993	3.376283169	11.27149582	-197.7238159	-4.304020405	55.86933899	1.0
14	-1.201135993	3.376283169	11.27149582	-196.6440735	-2.640455484	62.54810333	1.0
15	-1.201135993	3.376283169	11.27149582	-195.4392395	-0.784163177	70.00061035	1.0
16	-1.201135993	3.376283169	11.27149582	-194.1688232	1.173172474	77.85878754	1.0
[right_finger5]
13	-6.853637218	4.493112087	-5.936321735	23.90984917	-24.31267166	127.6231613	1.0
14	-6.853637218	4.493112087	-5.936321735	24.44710159	-21.48176956	122.9325256	1.0
15	-6.853637218	4.493112087	-5.936321735	25.04659462	-18.32290268	117.6984711	1.0
16	-6.853637218	4.493112087	-5.936321735	25.67872238	-14.99208927	112.1795197	1.0
[joint3]
13	-1.657010078	-17.01289368	0.01287565939	4.359864235	54.39720154	-11.9743309	1.0
14	-1.657010078	-17.01289368	0.01287565939	2.185658693	49.50039291	-10.85204887	1.0
15	-1.657010078	-17.01289368	0.01287565939	-0.2404315323	44.0362854	-9.599750519	1.0
16	-1.657010078	-17.01289368	0.01287565939	-2.798581839	38.27474213	-8.279283524	1.0
[right_shoulder2]
13	-14.91590023	-0.6211000085	-0.9477797747	-53.14370346	1294.647339	79.56962585	1.0
14	-14.91590023	-0.6211000085	-0.9477797747	-48.34046173	1291.596191	75.38111115	1.0
15	-14.91590023	-0.6211000085	-0.9477797747	-42.98075867	1288.19165	70.70733643	1.0
16	-14.91590023	-0.6211000085	-0.9477797747	-37.32931137	1284.601685	65.77915955	1.0
[right_elbow2]
13	12.31681442	-0.8283000588	-3.363502264	5.515624046	2.180874825	-36.9086113	1.0
14	12.367239	-0.8150522709	-3.332697153	5.541969776	2.906755209	-35.366539	1.0
15	12.42350388	-0.8002695441	-3.298323393	5.571366787	3.716730118	-33.6458168	1.0
16	12.48283195	-0.7846821547	-3.262078524	5.60236454	4.570794106	-31.83142853	1.0
[right_wrist2]
13	11.85136986	-0.2495054156	0.2257456481	1.282598972	-6.020671844	-13.12873554	1.0
14	11.85136986	-0.2495054156	0.2257456481	1.190924883	-6.845156193	-12.19035435	1.0
15	11.85136986	-0.2495054156	0.2257456481	1.08863008	-7.765158176	-11.14326191	1.0
16	11.85136986	-0.2495054156	0.2257456481	0.9807670116	-8.735239983	-10.03917122	1.0
[right_hand2]
13	8.313048363	0.02588133886	-0.2132965624	21.14812279	19.1505928	-2.81056118	1.0
14	8.313048363	0.02588133886	-0.2132965624	20.10637283	20.133564	-4.408407211	1.0
15	8.313048363	0.02588133886	-0.2132965624	18.9439373	21.23041344	-6.191365719	1.0
16	8.313048363	0.02588133886	-0.2132965624	17.71822548	22.38696671	-8.071376801	1.0
[right_finger6]
13	-10.07661057	-3.347557783	1.489186764	-84.23860931	13.35875225	87.81707001	1.0
14	-10.07661057	-3.347557783	1.489186764	-84.11885834	15.37315559	88.07373047	1.0
15	-10.07661057	-3.347557783	1.489186764	-83.98523712	17.62092972	88.36013031	1.0
16	-10.07661057	-3.347557783	1.489186764	-83.84434509	19.99105835	88.662117	1.0
[right_finger7]
13	1.201135993	-3.376283169	-11.27149582	-194.0888062	12.57545376	108.5819092	1.0
14	1.201135993	-3.376283169	-11.27149582	-192.9647217	13.04009533	112.4225769	1.0
15	1.201135993	-3.376283169	-11.27149582	-191.7104034	13.55856419	116.7081985	1.0
16	1.201135993	-3.376283169	-11.27149582	-190.3878174	14.10525608	121.2270813	1.0
[right_finger8]
13	6.853637218	-4.493112087	5.936321735	32.27086639	-11.33768654	102.2863312	1.0
14	6.853637218	-4.493112087	5.936321735	32.00646591	-9.06856823	98.74303436	1.0
15	6.853637218	-4.493112087	5.936321735	31.71143723	-6.536571503	94.78923035	1.0
16	6.853637218	-4.493112087	5.936321735	31.40035057	-3.86675024	90.62021637	1.0
[Center_pelvis]
13	-5.616972446	-0.3766000271	2.04698658	-23.63880348	0	0	1.0
14	-5.616972446	-0.3766000271	2.04698658	-21.15476608	0	0	1.0
15	-5.616972446	-0.3766000271	2.04698658	-16.75039673	0	0	1.0
16	-5.616972446	-0.3766000271	2.04698658	-10.50461674	0	0	1.0
[left_pelvs]
13	11.08986378	-0.01586683653	-0.09214995801	8.576001167	-0.1562882662	0.4822564423	1.0
14	11.08986378	-0.01586683653	-0.09214995801	9.517683983	-0.6585861444	2.032189369	1.0
15	11.08986378	-0.01586683653	-0.09214995801	11.18735123	-1.549194336	4.780326366	1.0
16	11.08986378	-0.01586683653	-0.09214995801	13.55508518	-2.81215477	8.677424431	1.0
[left_leg]
13	8.450808053e-008	-5.682914734	0.3641465604	0.244511798	48.19800568	-0.01185826026	1.0
14	8.450808053e-008	-5.682914734	0.3641465604	1.030352831	44.10669708	-0.04996975139	1.0
15	8.450808053e-008	-5.682914734	0.3641465604	2.423702478	36.85253143	-0.1175440028	1.0
16	8.450808053e-008	-5.682914734	0.3641465604	4.399594307	26.56548691	-0.2133702189	1.0
[left_knee]
13	-10.69747543	0.03457061574	-6.811455844e-009	0.3158234954	-5.640825272	-0.2207917571	1.0
14	-10.69747543	0.03457061574	-6.811455844e-009	1.330854774	-10.0433321	-0.9303985238	1.0
15	-10.69747543	0.03457061574	-6.811455844e-009	3.130573988	-17.84927559	-2.188579321	1.0
16	-10.69747543	0.03457061574	-6.811455844e-009	5.682733536	-28.918787	-3.972790241	1.0
[left_foot]
13	-14.54718971	-0.01193539705	1.933258442e-009	10.2876749	0.2903870642	-0.1098568365	1.0
14	-14.54718971	-0.01193539705	1.933258442e-009	6.227452755	1.223667622	-0.4629277587	1.0
15	-14.54718971	-0.01193539705	1.933258442e-009	-0.9715979695	2.878437281	-1.088946581	1.0
16	-14.54718971	-0.01193539705	1.933258442e-009	-11.18048191	5.225045681	-1.976695895	1.0
[right_pelvis]
13	-10.5868988	0.4465443194	0.2088862956	-9.943107605	3.146865538e-018	0.3247529566	1.0
14	-10.5868988	0.4465443194	0.2088862956	-9.776328087	1.32606358e-017	1.36848259	1.0
15	-10.5868988	0.4465443194	0.2088862956	-9.480618477	3.119303715e-017	3.21908617	1.0
16	-10.5868988	0.4465443194	0.2088862956	-9.061275482	5.662275624e-017	5.843403816	1.0
[right_leg]
13	0.09169664979	-5.593489647	0.06310817599	0.01535053551	-49.68541718	-0.3061440885	1.0
14	0.09169664979	-5.593489647	0.06310817599	0.06468591094	-42.80896759	-1.290066481	1.0
15	0.09169664979	-5.593489647	0.06310817599	0.1521608829	-30.61655426	-3.034627438	1.0
16	0.09169664979	-5.593489647	0.06310817599	0.2762080729	-13.3266468	-5.50856781	1.0
[right_knee]
13	10.69750977	-0.03459574655	-4.718447855e-015	35.88664627	-39.30038452	-5.583442211	1.0
14	10.69750977	-0.03459574655	-4.718447855e-015	32.11556244	-35.48348236	-4.996716499	1.0
15	10.69750977	-0.03459574655	-4.718447855e-015	25.42918587	-28.71586037	-3.956413031	1.0
16	10.69750977	-0.03459574655	-4.718447855e-015	15.94731426	-19.11877632	-2.481171131	1.0
[right_foot]
13	14.54718685	0.01191107463	1.774880243e-010	-10.27794933	30.92003059	-11.26275063	1.0
14	14.54718685	0.01191107463	1.774880243e-010	-9.197912216	27.67085838	-10.07922554	1.0
15	14.54718685	0.01191107463	1.774880243e-010	-7.282928944	21.9098568	-7.980756283	1.0
16	14.54718685	0.01191107463	1.774880243e-010	-4.567317486	13.74024963	-5.004942894	1.0
[EndOfFile]
